<svg version="1.1" xmlns="http://www.w3.org/2000/svg" viewBox="0 0 414.55729166666674 404.5431472081218" width="1243.6718750000002" height="1213.6294416243654">
  <!-- svg-source:excalidraw -->
  
  <defs>
    <style class="style-fonts">
      @font-face {
        font-family: "Virgil";
        src: url("https://excalidraw.com/Virgil.woff2");
      }
      @font-face {
        font-family: "Cascadia";
        src: url("https://excalidraw.com/Cascadia.woff2");
      }
    </style>
    
  </defs>
  <rect x="0" y="0" width="414.55729166666674" height="404.5431472081218" fill="#ffffff"></rect><g stroke-linecap="round" transform="translate(10.000000000000057 10) rotate(0 197.27864583333334 192.2715736040609)"><path d="M190.73 -0.51 C207.17 -4.05, 225.84 1.99, 243.19 6.08 C260.53 10.17, 279.22 15.56, 294.8 24.01 C310.39 32.47, 324.27 44.39, 336.71 56.82 C349.15 69.26, 360.57 83.68, 369.44 98.61 C378.31 113.54, 385.75 129.74, 389.94 146.41 C394.12 163.08, 395.21 181.11, 394.57 198.61 C393.92 216.11, 391.43 234.97, 386.05 251.41 C380.67 267.86, 372.1 282.95, 362.27 297.29 C352.45 311.64, 340.64 325.96, 327.09 337.47 C313.54 348.99, 296.87 358.95, 280.96 366.39 C265.05 373.82, 249.02 379.05, 231.63 382.06 C214.24 385.08, 194.25 386.18, 176.62 384.48 C158.98 382.78, 142.26 378.47, 125.82 371.85 C109.38 365.24, 92.41 355.36, 77.98 344.8 C63.55 334.24, 49.96 322.17, 39.24 308.48 C28.52 294.8, 19.9 278.8, 13.68 262.67 C7.46 246.53, 3.56 228.73, 1.92 211.67 C0.27 194.61, 0.94 177.29, 3.81 160.32 C6.68 143.36, 11.7 125.61, 19.15 109.87 C26.6 94.13, 37.02 78.83, 48.52 65.87 C60.03 52.91, 73.43 41.66, 88.19 32.11 C102.95 22.56, 118.68 14.03, 137.07 8.55 C155.45 3.06, 186.76 0.07, 198.5 -0.79 C210.23 -1.64, 207.36 -0.08, 207.48 3.41 M231.05 4.24 C248.03 4.02, 266.57 11.53, 282.83 18.83 C299.09 26.13, 315.13 36.78, 328.61 48.05 C342.1 59.31, 354.33 71.74, 363.75 86.4 C373.17 101.05, 379.98 119.23, 385.13 135.99 C390.28 152.75, 394.23 170.13, 394.66 186.96 C395.09 203.79, 392.08 220.35, 387.7 236.98 C383.31 253.61, 376.68 271.32, 368.35 286.73 C360.02 302.14, 350.1 317, 337.74 329.43 C325.37 341.85, 310.08 352.86, 294.17 361.29 C278.26 369.73, 259.63 376.38, 242.25 380.02 C224.87 383.66, 207.55 383.92, 189.91 383.15 C172.27 382.38, 153.5 380.6, 136.41 375.39 C119.32 370.18, 101.99 361.56, 87.37 351.9 C72.74 342.24, 60.31 330.17, 48.68 317.41 C37.05 304.65, 25.09 290.6, 17.61 275.34 C10.12 260.08, 6.32 242.94, 3.78 225.85 C1.23 208.75, 0.45 190.14, 2.34 172.76 C4.24 155.38, 9.04 137.98, 15.16 121.57 C21.27 105.16, 28.54 87.99, 39.04 74.32 C49.54 60.65, 63.59 49.89, 78.15 39.56 C92.7 29.24, 109.92 18.58, 126.38 12.35 C142.84 6.12, 159.35 3.55, 176.89 2.19 C194.42 0.84, 222.42 3.56, 231.6 4.21 C240.78 4.85, 232.5 3.22, 231.95 6.05" stroke="none" stroke-width="0" fill="#ebfbee"></path><path d="M140.4 7.41 C155.46 -0.28, 175.68 0.23, 193.57 -0.04 C211.47 -0.31, 230.53 1.29, 247.78 5.8 C265.02 10.3, 281.84 18.03, 297.07 26.99 C312.29 35.96, 326.91 47.1, 339.13 59.58 C351.35 72.06, 362.07 86.66, 370.37 101.86 C378.67 117.06, 385.05 134.03, 388.94 150.77 C392.84 167.52, 394.68 185.12, 393.75 202.33 C392.82 219.53, 388.84 237.51, 383.35 254.02 C377.86 270.52, 370.62 286.98, 360.8 301.36 C350.97 315.74, 338.13 329.24, 324.4 340.3 C310.67 351.35, 294.53 360.79, 278.4 367.7 C262.26 374.61, 245 379.31, 227.57 381.73 C210.14 384.15, 191.64 384.35, 173.83 382.2 C156.01 380.06, 137.02 375.3, 120.69 368.84 C104.36 362.39, 89.69 353.93, 75.85 343.48 C62.02 333.04, 48.36 320.22, 37.68 306.18 C27.01 292.13, 17.8 275.73, 11.8 259.24 C5.79 242.74, 3.08 224.28, 1.65 207.22 C0.22 190.16, -0.13 173.57, 3.22 156.86 C6.57 140.15, 13.86 122.72, 21.75 106.97 C29.65 91.21, 38.87 75.22, 50.59 62.34 C62.31 49.46, 76.35 39.01, 92.08 29.67 C107.82 20.32, 134.99 9.63, 144.99 6.27 C154.99 2.9, 151.07 6.36, 152.09 9.47 M171.96 2.75 C188.25 -2.22, 209.15 1.05, 226.8 3.41 C244.45 5.78, 261.81 10.23, 277.86 16.94 C293.91 23.65, 309.74 32.65, 323.1 43.67 C336.45 54.7, 347.65 68.83, 357.98 83.11 C368.3 97.38, 379.15 112.93, 385.05 129.3 C390.95 145.66, 392.72 164.08, 393.37 181.29 C394.03 198.5, 392.68 215.86, 388.98 232.58 C385.29 249.31, 379.05 266.34, 371.2 281.63 C363.35 296.93, 353.81 311.52, 341.89 324.36 C329.96 337.2, 315.15 349.91, 299.66 358.65 C284.17 367.38, 266.04 372.41, 248.95 376.78 C231.86 381.14, 214.88 384.79, 197.12 384.84 C179.35 384.89, 159.42 382.02, 142.38 377.06 C125.35 372.1, 109.85 364.07, 94.89 355.08 C79.93 346.08, 64.7 335.6, 52.64 323.07 C40.59 310.55, 30.91 295.57, 22.55 279.92 C14.18 264.28, 6.33 246.33, 2.45 229.21 C-1.44 212.09, -2.2 194.1, -0.76 177.2 C0.68 160.31, 4.84 143.93, 11.07 127.82 C17.29 111.71, 25.87 94.62, 36.57 80.54 C47.27 66.46, 61.53 54.16, 75.24 43.36 C88.95 32.55, 102.56 22.69, 118.83 15.73 C135.1 8.77, 164.17 3.4, 172.84 1.6 C181.51 -0.2, 170.61 1.74, 170.85 4.93" stroke="#2f9e44" stroke-width="4" fill="none"></path></g><g stroke-linecap="round" transform="translate(38.343668717737955 35.31586646855396) rotate(0 168.71020324326673 167.3501662382581)"><path d="M141.98 1.45 C157.13 -3.59, 175.83 -0.85, 192.44 1.71 C209.05 4.27, 226.74 9.63, 241.64 16.8 C256.55 23.98, 269.8 33.65, 281.87 44.74 C293.95 55.83, 305.66 69.25, 314.1 83.36 C322.55 97.47, 328.71 113.35, 332.51 129.38 C336.32 145.41, 337.82 163.14, 336.92 179.52 C336.02 195.89, 333.08 212.56, 327.11 227.65 C321.14 242.74, 311.42 257.23, 301.1 270.04 C290.77 282.85, 278.7 294.91, 265.16 304.51 C251.63 314.11, 235.74 322.75, 219.9 327.63 C204.05 332.5, 186.64 333.68, 170.08 333.76 C153.51 333.83, 136.55 332.8, 120.5 328.07 C104.45 323.34, 87.51 314.58, 73.78 305.4 C60.06 296.22, 48.57 285.71, 38.15 273.01 C27.73 260.32, 17.6 244.41, 11.27 229.25 C4.93 214.09, 1.5 198.35, 0.14 182.05 C-1.23 165.76, -0.54 147.81, 3.08 131.48 C6.69 115.16, 13.38 98.45, 21.83 84.1 C30.27 69.76, 41.69 56.72, 53.75 45.42 C65.81 34.13, 78.71 23.72, 94.18 16.33 C109.65 8.94, 137.29 2.92, 146.59 1.06 C155.88 -0.79, 149.65 2.47, 149.95 5.21 M158.15 0.76 C173.81 -2.53, 192.08 2.47, 208.12 6.09 C224.16 9.7, 240.03 14.28, 254.38 22.43 C268.73 30.58, 283.01 42.51, 294.22 55.01 C305.43 67.5, 314.87 82.54, 321.65 97.38 C328.43 112.21, 332.7 127.93, 334.91 144.01 C337.12 160.09, 337.31 177.52, 334.92 193.85 C332.53 210.19, 328.07 227.09, 320.59 242.03 C313.11 256.97, 301.69 271.55, 290.05 283.49 C278.4 295.43, 265.34 305.57, 250.73 313.68 C236.11 321.78, 218.67 328.74, 202.36 332.12 C186.06 335.51, 169.24 335.6, 152.89 333.98 C136.55 332.36, 119.38 328.59, 104.3 322.43 C89.23 316.26, 75.02 307.44, 62.45 296.99 C49.88 286.54, 38.01 273.34, 28.9 259.72 C19.79 246.1, 12.48 231.07, 7.8 215.26 C3.12 199.45, 0.75 181.52, 0.83 164.86 C0.91 148.19, 3.39 131.14, 8.27 115.27 C13.15 99.41, 20.77 83.3, 30.14 69.68 C39.51 56.06, 51.39 43.23, 64.51 33.54 C77.64 23.85, 93.19 16.86, 108.89 11.55 C124.58 6.23, 150.35 3.08, 158.7 1.63 C167.05 0.18, 158.8 0.16, 158.99 2.83" stroke="none" stroke-width="0" fill="#ebfbee"></path><path d="M217.47 7.27 C233.58 9.08, 249.97 19.43, 263.88 28.51 C277.79 37.58, 290.57 48.98, 300.93 61.7 C311.3 74.43, 320.2 89.48, 326.08 104.84 C331.96 120.19, 334.88 137.35, 336.19 153.84 C337.49 170.32, 337.28 187.73, 333.91 203.75 C330.54 219.76, 324.4 235.67, 315.97 249.91 C307.54 264.15, 295.46 277.98, 283.33 289.19 C271.21 300.39, 257.93 309.82, 243.23 317.14 C228.52 324.47, 211.56 330.43, 195.1 333.14 C178.65 335.85, 160.88 335.93, 144.49 333.39 C128.11 330.86, 111.7 324.93, 96.81 317.91 C81.92 310.89, 67.6 302.37, 55.14 291.28 C42.68 280.19, 30.67 265.6, 22.06 251.39 C13.46 237.18, 7.07 222.02, 3.49 206.01 C-0.08 189.99, -0.79 171.92, 0.63 155.3 C2.04 138.67, 6.16 121.62, 11.98 106.26 C17.81 90.9, 25.37 75.87, 35.56 63.14 C45.75 50.41, 59.29 38.98, 73.11 29.88 C86.94 20.79, 102.65 13.56, 118.52 8.58 C134.38 3.61, 149.79 -0.25, 168.28 0.03 C186.77 0.31, 217.68 7.26, 229.46 10.24 C241.23 13.22, 240.06 15.34, 238.9 17.93 M175.95 1.49 C192.04 -0.24, 210.76 5.9, 226.44 11.52 C242.11 17.14, 256.69 25.57, 270.01 35.22 C283.33 44.87, 296.59 56.16, 306.35 69.41 C316.11 82.65, 323.51 98.91, 328.58 114.68 C333.66 130.44, 336.49 147.73, 336.79 164.02 C337.09 180.31, 334.95 196.83, 330.4 212.42 C325.84 228.02, 318.56 243.89, 309.47 257.57 C300.39 271.24, 288.4 283.7, 275.89 294.46 C263.37 305.22, 249.61 315.35, 234.38 322.13 C219.14 328.91, 200.81 333.8, 184.49 335.13 C168.18 336.46, 152.54 333.44, 136.48 330.11 C120.43 326.77, 103.12 322.98, 88.14 315.11 C73.15 307.25, 58.41 294.74, 46.58 282.9 C34.75 271.06, 24.7 258.37, 17.15 244.06 C9.6 229.75, 4.06 213.37, 1.29 197.06 C-1.49 180.76, -1.7 162.64, 0.51 146.23 C2.72 129.83, 7.54 113.34, 14.53 98.63 C21.52 83.92, 31.36 70.32, 42.45 57.96 C53.54 45.61, 67.09 33.49, 81.07 24.49 C95.06 15.48, 110.22 7.75, 126.37 3.93 C142.52 0.11, 169.65 1.6, 177.98 1.56 C186.31 1.53, 176.79 1.02, 176.34 3.73" stroke="#2f9e44" stroke-width="4" fill="none"></path></g><g stroke-linecap="round" transform="translate(26.525628359945472 171.66623330056973) rotate(0 19.450854529407025 27.35276418197867)"><path d="M10.81 0.31 L33.35 0.41 L37.3 3.93 L37.34 43.26 L37.29 50.51 L33.23 55.89 L5.4 53.04 L0.63 50.16 L0.53 6.92 L5.76 0.67 L9.96 -1.41" stroke="none" stroke-width="0" fill="#ebfbee"></path><path d="M9.73 0 M9.73 0 C14.53 -0.52, 20.36 -1.21, 29.18 0 M9.73 0 C14.5 0.43, 19.04 -0.04, 29.18 0 M29.18 0 C37.55 -1.04, 37.66 3.82, 38.9 9.73 M29.18 0 C34.01 1.98, 37.32 5.03, 38.9 9.73 M38.9 9.73 C39.29 17.44, 39.48 26.28, 38.9 44.98 M38.9 9.73 C38.69 17.89, 38.11 26.97, 38.9 44.98 M38.9 44.98 C37.6 50.05, 37.29 55.65, 29.18 54.71 M38.9 44.98 C40.28 49.39, 37.42 55, 29.18 54.71 M29.18 54.71 C25.88 54.33, 19.99 55.76, 9.73 54.71 M29.18 54.71 C24.74 55.18, 19.36 53.83, 9.73 54.71 M9.73 54.71 C2.38 53, -0.89 49.64, 0 44.98 M9.73 54.71 C2.69 56.32, -0.05 49.19, 0 44.98 M0 44.98 C-1.28 31.67, -0.5 16.65, 0 9.73 M0 44.98 C0.44 35.47, 0.33 24.37, 0 9.73 M0 9.73 C-1.01 4.36, 3.77 -1.17, 9.73 0 M0 9.73 C-0.8 3.89, 2.03 2.12, 9.73 0" stroke="transparent" stroke-width="4" fill="none"></path></g><g stroke-linecap="round"><g transform="translate(32.60402040038525 147.35266513881083) rotate(0 13.923595658494492 13.43944674107189)"><path d="M1.02 -1.13 C2.28 3.35, 3.61 26.51, 8.07 26.98 C12.52 27.46, 24.66 5.93, 27.75 1.7 M0.09 0.89 C1.21 5.47, 2.95 27.72, 7.52 28.01 C12.09 28.3, 24.3 6.93, 27.52 2.64" stroke="#2f9e44" stroke-width="4" fill="none"></path></g></g><mask></mask><g transform="translate(77.1956013926756 133.09687500000007) rotate(0 131.54352069784068 67.33033165176283)"><text x="0" y="0" font-family="Cascadia, Segoe UI Emoji" font-size="56.108609709802366px" fill="#2f9e44" text-anchor="start" style="white-space: pre;" direction="ltr" dominant-baseline="text-before-edge">OBSERVER</text><text x="0" y="67.33033165176283" font-family="Cascadia, Segoe UI Emoji" font-size="56.108609709802366px" fill="#2f9e44" text-anchor="start" style="white-space: pre;" direction="ltr" dominant-baseline="text-before-edge">WEB</text></g></svg>